<?xml version="1.0" encoding="UTF-8" standalone="no"?>
<!DOCTYPE svg PUBLIC "-//W3C//DTD SVG 1.1//EN"
 "http://www.w3.org/Graphics/SVG/1.1/DTD/svg11.dtd">
<!-- Generated by graphviz version 8.0.5 (20230430.1635)
 -->
<!-- Pages: 1 -->
<svg width="531pt" height="429pt"
 viewBox="0.00 0.00 531.39 428.50" xmlns="http://www.w3.org/2000/svg" xmlns:xlink="http://www.w3.org/1999/xlink">
<g id="graph0" class="graph" transform="scale(1 1) rotate(0) translate(4 424.5)">
<polygon fill="white" stroke="none" points="-4,4 -4,-424.5 527.39,-424.5 527.39,4 -4,4"/>
<text text-anchor="middle" x="261.69" y="-397.5" font-family="Times,serif" font-size="20.00">Simple Sumo Robot</text>
<!-- Inicial -->
<g id="node1" class="node">
<title>Inicial</title>
<polygon fill="lightgray" stroke="black" points="268.26,-354.05 270.51,-354.15 272.73,-354.3 274.92,-354.49 277.08,-354.74 279.18,-355.03 281.22,-355.36 283.2,-355.75 285.1,-356.18 286.93,-356.65 288.66,-357.16 290.3,-357.71 291.85,-358.31 293.29,-358.94 294.62,-359.61 295.84,-360.31 296.95,-361.04 297.94,-361.8 298.81,-362.59 299.56,-363.41 300.19,-364.25 300.7,-365.11 301.09,-365.99 301.36,-366.89 301.52,-367.8 301.56,-368.72 301.49,-369.65 301.31,-370.59 301.03,-371.53 300.65,-372.47 300.17,-373.41 299.6,-374.35 298.94,-375.28 298.2,-376.2 297.38,-377.11 296.49,-378.01 295.53,-378.89 294.5,-379.75 293.42,-380.59 292.29,-381.41 291.11,-382.2 289.88,-382.96 288.62,-383.69 287.32,-384.39 285.98,-385.06 284.62,-385.69 283.24,-386.29 281.83,-386.84 280.41,-387.35 278.97,-387.82 277.51,-388.25 276.05,-388.64 274.57,-388.97 273.09,-389.26 271.6,-389.51 270.11,-389.7 268.61,-389.85 267.11,-389.95 265.61,-390 264.11,-390 262.61,-389.95 261.11,-389.85 259.61,-389.7 258.12,-389.51 256.63,-389.26 255.15,-388.97 253.67,-388.64 252.21,-388.25 250.76,-387.82 249.32,-387.35 247.89,-386.84 246.48,-386.29 245.1,-385.69 243.74,-385.06 242.41,-384.39 241.11,-383.69 239.84,-382.96 238.61,-382.2 237.43,-381.41 236.3,-380.59 235.22,-379.75 234.2,-378.89 233.24,-378.01 232.34,-377.11 231.53,-376.2 230.78,-375.28 230.12,-374.35 229.55,-373.41 229.07,-372.47 228.69,-371.53 228.41,-370.59 228.23,-369.65 228.16,-368.72 228.2,-367.8 228.36,-366.89 228.63,-365.99 229.02,-365.11 229.53,-364.25 230.16,-363.41 230.91,-362.59 231.79,-361.8 232.77,-361.04 233.88,-360.31 235.1,-359.61 236.43,-358.94 237.87,-358.31 239.42,-357.71 241.06,-357.16 242.8,-356.65 244.62,-356.18 246.52,-355.75 248.5,-355.36 250.55,-355.03 252.65,-354.74 254.8,-354.49 256.99,-354.3 259.22,-354.15 261.47,-354.05 263.73,-354 266,-354 268.26,-354.05"/>
<text text-anchor="middle" x="264.86" y="-366.95" font-family="Times,serif" font-size="14.00">Inicial</text>
</g>
<!-- Espera -->
<g id="node2" class="node">
<title>Espera</title>
<polygon fill="lightgray" stroke="black" points="268.41,-265.55 270.76,-265.65 273.08,-265.8 275.37,-265.99 277.62,-266.24 279.82,-266.53 281.95,-266.86 284.02,-267.25 286,-267.68 287.91,-268.15 289.72,-268.66 291.44,-269.21 293.05,-269.81 294.56,-270.44 295.95,-271.11 297.22,-271.81 298.38,-272.54 299.41,-273.3 300.32,-274.09 301.11,-274.91 301.76,-275.75 302.3,-276.61 302.7,-277.49 302.99,-278.39 303.15,-279.3 303.2,-280.22 303.12,-281.15 302.94,-282.09 302.64,-283.03 302.24,-283.97 301.74,-284.91 301.15,-285.85 300.46,-286.78 299.68,-287.7 298.83,-288.61 297.9,-289.51 296.89,-290.39 295.83,-291.25 294.7,-292.09 293.51,-292.91 292.28,-293.7 291,-294.46 289.68,-295.19 288.32,-295.89 286.92,-296.56 285.5,-297.19 284.06,-297.79 282.59,-298.34 281.1,-298.85 279.6,-299.32 278.08,-299.75 276.55,-300.14 275.01,-300.47 273.46,-300.76 271.9,-301.01 270.34,-301.2 268.78,-301.35 267.21,-301.45 265.65,-301.5 264.08,-301.5 262.51,-301.45 260.94,-301.35 259.38,-301.2 257.82,-301.01 256.26,-300.76 254.72,-300.47 253.18,-300.14 251.65,-299.75 250.13,-299.32 248.62,-298.85 247.13,-298.34 245.67,-297.79 244.22,-297.19 242.8,-296.56 241.41,-295.89 240.05,-295.19 238.73,-294.46 237.45,-293.7 236.21,-292.91 235.03,-292.09 233.9,-291.25 232.83,-290.39 231.83,-289.51 230.9,-288.61 230.04,-287.7 229.27,-286.78 228.58,-285.85 227.98,-284.91 227.48,-283.97 227.08,-283.03 226.78,-282.09 226.6,-281.15 226.53,-280.22 226.57,-279.3 226.73,-278.39 227.02,-277.49 227.43,-276.61 227.96,-275.75 228.62,-274.91 229.4,-274.09 230.31,-273.3 231.35,-272.54 232.5,-271.81 233.78,-271.11 235.17,-270.44 236.67,-269.81 238.28,-269.21 240,-268.66 241.81,-268.15 243.72,-267.68 245.71,-267.25 247.77,-266.86 249.91,-266.53 252.1,-266.24 254.35,-265.99 256.64,-265.8 258.97,-265.65 261.31,-265.55 263.68,-265.5 266.05,-265.5 268.41,-265.55"/>
<text text-anchor="middle" x="264.86" y="-278.45" font-family="Times,serif" font-size="14.00">Espera</text>
</g>
<!-- Inicial&#45;&gt;Espera -->
<g id="edge1" class="edge">
<title>Inicial&#45;&gt;Espera</title>
<path fill="none" stroke="black" d="M264.86,-353.91C264.86,-342.14 264.86,-326.23 264.86,-312.61"/>
<polygon fill="black" stroke="black" points="268.36,-312.85 264.86,-302.85 261.36,-312.85 268.36,-312.85"/>
<text text-anchor="middle" x="277.24" y="-322.7" font-family="Times,serif" font-size="14.00">Liga</text>
</g>
<!-- Espera&#45;&gt;Espera -->
<g id="edge2" class="edge">
<title>Espera&#45;&gt;Espera</title>
<path fill="none" stroke="black" d="M296.57,-291.03C318.11,-293.23 339.2,-290.72 339.2,-283.5 339.2,-278.13 327.51,-275.36 312.65,-275.21"/>
<polygon fill="black" stroke="black" points="312.86,-271.73 302.96,-275.52 313.06,-278.73 312.86,-271.73"/>
<text text-anchor="middle" x="345.2" y="-278.45" font-family="Times,serif" font-size="14.00">5s</text>
</g>
<!-- Procura Oponente -->
<g id="node3" class="node">
<title>Procura Oponente</title>
<polygon fill="lightgray" stroke="black" points="272.54,-177.05 277.63,-177.15 282.67,-177.3 287.63,-177.49 292.49,-177.74 297.25,-178.03 301.87,-178.36 306.35,-178.75 310.66,-179.18 314.78,-179.65 318.71,-180.16 322.42,-180.71 325.92,-181.31 329.18,-181.94 332.19,-182.61 334.95,-183.31 337.45,-184.04 339.69,-184.8 341.66,-185.59 343.36,-186.41 344.79,-187.25 345.94,-188.11 346.83,-188.99 347.44,-189.89 347.79,-190.8 347.89,-191.72 347.73,-192.65 347.33,-193.59 346.69,-194.53 345.83,-195.47 344.74,-196.41 343.45,-197.35 341.96,-198.28 340.28,-199.2 338.43,-200.11 336.41,-201.01 334.24,-201.89 331.92,-202.75 329.48,-203.59 326.92,-204.41 324.24,-205.2 321.47,-205.96 318.61,-206.69 315.66,-207.39 312.65,-208.06 309.57,-208.69 306.44,-209.29 303.26,-209.84 300.03,-210.35 296.77,-210.82 293.49,-211.25 290.17,-211.64 286.83,-211.97 283.48,-212.26 280.11,-212.51 276.73,-212.7 273.35,-212.85 269.96,-212.95 266.56,-213 263.16,-213 259.77,-212.95 256.38,-212.85 252.99,-212.7 249.61,-212.51 246.24,-212.26 242.89,-211.97 239.55,-211.64 236.24,-211.25 232.95,-210.82 229.69,-210.35 226.47,-209.84 223.29,-209.29 220.15,-208.69 217.08,-208.06 214.06,-207.39 211.12,-206.69 208.26,-205.96 205.48,-205.2 202.81,-204.41 200.24,-203.59 197.8,-202.75 195.49,-201.89 193.31,-201.01 191.3,-200.11 189.44,-199.2 187.76,-198.28 186.27,-197.35 184.98,-196.41 183.9,-195.47 183.03,-194.53 182.39,-193.59 181.99,-192.65 181.83,-191.72 181.93,-190.8 182.28,-189.89 182.9,-188.99 183.78,-188.11 184.94,-187.25 186.36,-186.41 188.06,-185.59 190.03,-184.8 192.27,-184.04 194.77,-183.31 197.53,-182.61 200.55,-181.94 203.81,-181.31 207.3,-180.71 211.02,-180.16 214.94,-179.65 219.07,-179.18 223.38,-178.75 227.85,-178.36 232.47,-178.03 237.23,-177.74 242.1,-177.49 247.06,-177.3 252.09,-177.15 257.18,-177.05 262.3,-177 267.43,-177 272.54,-177.05"/>
<text text-anchor="middle" x="264.86" y="-189.95" font-family="Times,serif" font-size="14.00">Procura Oponente</text>
</g>
<!-- Espera&#45;&gt;Procura Oponente -->
<g id="edge3" class="edge">
<title>Espera&#45;&gt;Procura Oponente</title>
<path fill="none" stroke="black" d="M264.86,-265.41C264.86,-253.64 264.86,-237.73 264.86,-224.11"/>
<polygon fill="black" stroke="black" points="268.36,-224.35 264.86,-214.35 261.36,-224.35 268.36,-224.35"/>
<text text-anchor="middle" x="282.86" y="-234.2" font-family="Times,serif" font-size="14.00">T &gt; 5s</text>
</g>
<!-- Procura Oponente&#45;&gt;Procura Oponente -->
<g id="edge4" class="edge">
<title>Procura Oponente&#45;&gt;Procura Oponente</title>
<path fill="none" stroke="black" d="M331.86,-203.22C359.99,-203.81 383.89,-201.07 383.89,-195 383.89,-190.76 372.23,-188.14 355.61,-187.15"/>
<polygon fill="black" stroke="black" points="355.81,-183.62 345.69,-186.75 355.55,-190.62 355.81,-183.62"/>
<text text-anchor="middle" x="453.64" y="-189.95" font-family="Times,serif" font-size="14.00">Oponente não encontrado</text>
</g>
<!-- Move Frente -->
<g id="node4" class="node">
<title>Move Frente</title>
<polygon fill="lightgray" stroke="black" points="68.68,-88.55 72.53,-88.65 76.34,-88.8 80.1,-88.99 83.78,-89.24 87.38,-89.53 90.88,-89.86 94.27,-90.25 97.53,-90.68 100.66,-91.15 103.63,-91.66 106.44,-92.21 109.09,-92.81 111.55,-93.44 113.84,-94.11 115.93,-94.81 117.82,-95.54 119.52,-96.3 121.01,-97.09 122.29,-97.91 123.37,-98.75 124.25,-99.61 124.92,-100.49 125.38,-101.39 125.65,-102.3 125.72,-103.22 125.6,-104.15 125.3,-105.09 124.82,-106.03 124.16,-106.97 123.34,-107.91 122.36,-108.85 121.23,-109.78 119.96,-110.7 118.56,-111.61 117.03,-112.51 115.39,-113.39 113.64,-114.25 111.79,-115.09 109.84,-115.91 107.82,-116.7 105.72,-117.46 103.55,-118.19 101.32,-118.89 99.04,-119.56 96.71,-120.19 94.34,-120.79 91.93,-121.34 89.49,-121.85 87.02,-122.32 84.53,-122.75 82.02,-123.14 79.5,-123.47 76.96,-123.76 74.41,-124.01 71.85,-124.2 69.29,-124.35 66.72,-124.45 64.15,-124.5 61.58,-124.5 59,-124.45 56.44,-124.35 53.87,-124.2 51.31,-124.01 48.76,-123.76 46.23,-123.47 43.7,-123.14 41.19,-122.75 38.7,-122.32 36.23,-121.85 33.79,-121.34 31.38,-120.79 29.01,-120.19 26.68,-119.56 24.4,-118.89 22.17,-118.19 20,-117.46 17.9,-116.7 15.88,-115.91 13.94,-115.09 12.09,-114.25 10.34,-113.39 8.69,-112.51 7.16,-111.61 5.76,-110.7 4.49,-109.78 3.36,-108.85 2.38,-107.91 1.56,-106.97 0.91,-106.03 0.42,-105.09 0.12,-104.15 0,-103.22 0.07,-102.3 0.34,-101.39 0.81,-100.49 1.48,-99.61 2.35,-98.75 3.43,-97.91 4.72,-97.09 6.21,-96.3 7.9,-95.54 9.8,-94.81 11.89,-94.11 14.17,-93.44 16.64,-92.81 19.28,-92.21 22.09,-91.66 25.07,-91.15 28.19,-90.68 31.45,-90.25 34.84,-89.86 38.34,-89.53 41.94,-89.24 45.63,-88.99 49.38,-88.8 53.19,-88.65 57.04,-88.55 60.92,-88.5 64.8,-88.5 68.68,-88.55"/>
<text text-anchor="middle" x="62.86" y="-101.45" font-family="Times,serif" font-size="14.00">Move Frente</text>
</g>
<!-- Procura Oponente&#45;&gt;Move Frente -->
<g id="edge5" class="edge">
<title>Procura Oponente&#45;&gt;Move Frente</title>
<path fill="none" stroke="black" d="M227.34,-177.93C192.4,-162.97 140.42,-140.71 104.28,-125.24"/>
<polygon fill="black" stroke="black" points="106.11,-121.78 95.54,-121.06 103.35,-128.22 106.11,-121.78"/>
<text text-anchor="middle" x="240.99" y="-145.7" font-family="Times,serif" font-size="14.00">Oponente encontrado</text>
</g>
<!-- Move Frente&#45;&gt;Move Frente -->
<g id="edge6" class="edge">
<title>Move Frente&#45;&gt;Move Frente</title>
<path fill="none" stroke="black" d="M113.98,-114.56C139.25,-115.65 161.72,-112.96 161.72,-106.5 161.72,-101.81 149.89,-99.11 133.74,-98.4"/>
<polygon fill="black" stroke="black" points="134.26,-94.89 124.2,-98.21 134.13,-101.89 134.26,-94.89"/>
<text text-anchor="middle" x="221.35" y="-101.45" font-family="Times,serif" font-size="14.00">Borda não encontrada</text>
</g>
<!-- Move Ré -->
<g id="node5" class="node">
<title>Move Ré</title>
<polygon fill="lightgray" stroke="black" points="203.37,-0.05 206.35,-0.15 209.3,-0.3 212.21,-0.49 215.07,-0.74 217.86,-1.03 220.57,-1.36 223.19,-1.75 225.72,-2.18 228.14,-2.65 230.44,-3.16 232.62,-3.71 234.67,-4.31 236.58,-4.94 238.35,-5.61 239.96,-6.31 241.43,-7.04 242.75,-7.8 243.9,-8.59 244.9,-9.41 245.73,-10.25 246.41,-11.11 246.93,-11.99 247.29,-12.89 247.5,-13.8 247.55,-14.72 247.46,-15.65 247.22,-16.59 246.85,-17.53 246.34,-18.47 245.71,-19.41 244.95,-20.35 244.07,-21.28 243.09,-22.2 242,-23.11 240.82,-24.01 239.55,-24.89 238.19,-25.75 236.76,-26.59 235.25,-27.41 233.68,-28.2 232.06,-28.96 230.38,-29.69 228.65,-30.39 226.89,-31.06 225.08,-31.69 223.24,-32.29 221.38,-32.84 219.49,-33.35 217.58,-33.82 215.65,-34.25 213.7,-34.64 211.75,-34.97 209.78,-35.26 207.81,-35.51 205.82,-35.7 203.84,-35.85 201.85,-35.95 199.86,-36 197.87,-36 195.87,-35.95 193.88,-35.85 191.9,-35.7 189.92,-35.51 187.94,-35.26 185.98,-34.97 184.02,-34.64 182.08,-34.25 180.15,-33.82 178.24,-33.35 176.35,-32.84 174.48,-32.29 172.64,-31.69 170.84,-31.06 169.07,-30.39 167.34,-29.69 165.67,-28.96 164.04,-28.2 162.47,-27.41 160.97,-26.59 159.53,-25.75 158.18,-24.89 156.9,-24.01 155.72,-23.11 154.63,-22.2 153.65,-21.28 152.78,-20.35 152.02,-19.41 151.38,-18.47 150.87,-17.53 150.5,-16.59 150.26,-15.65 150.17,-14.72 150.23,-13.8 150.43,-12.89 150.8,-11.99 151.31,-11.11 151.99,-10.25 152.83,-9.41 153.82,-8.59 154.98,-7.8 156.29,-7.04 157.76,-6.31 159.38,-5.61 161.15,-4.94 163.06,-4.31 165.11,-3.71 167.28,-3.16 169.59,-2.65 172.01,-2.18 174.53,-1.75 177.16,-1.36 179.87,-1.03 182.66,-0.74 185.51,-0.49 188.42,-0.3 191.37,-0.15 194.36,-0.05 197.36,0 200.37,0 203.37,-0.05"/>
<text text-anchor="middle" x="198.86" y="-12.95" font-family="Times,serif" font-size="14.00">Move Ré</text>
</g>
<!-- Move Frente&#45;&gt;Move Ré -->
<g id="edge7" class="edge">
<title>Move Frente&#45;&gt;Move Ré</title>
<path fill="none" stroke="black" d="M88.44,-89.23C110.86,-74.97 143.51,-54.2 167.5,-38.95"/>
<polygon fill="black" stroke="black" points="168.99,-41.51 175.55,-33.19 165.23,-35.6 168.99,-41.51"/>
<text text-anchor="middle" x="191.86" y="-57.2" font-family="Times,serif" font-size="14.00">Borda encontrada</text>
</g>
<!-- Move Ré&#45;&gt;Procura Oponente -->
<g id="edge9" class="edge">
<title>Move Ré&#45;&gt;Procura Oponente</title>
<path fill="none" stroke="black" d="M221.02,-33.03C229.99,-39.08 240.23,-46.48 248.86,-54 284.5,-85.06 297,-96.49 307.86,-142.5 309.55,-149.64 311.01,-152.38 307.86,-159 306.01,-162.9 303.48,-166.5 300.58,-169.8"/>
<polygon fill="black" stroke="black" points="298.52,-166.89 293.76,-176.35 303.38,-171.93 298.52,-166.89"/>
<text text-anchor="middle" x="332.24" y="-101.45" font-family="Times,serif" font-size="14.00">T &gt; 100ms</text>
</g>
<!-- Move Ré&#45;&gt;Move Ré -->
<g id="edge8" class="edge">
<title>Move Ré&#45;&gt;Move Ré</title>
<path fill="none" stroke="black" d="M238.94,-25.84C262.05,-27.44 283.55,-24.83 283.55,-18 283.55,-12.97 271.86,-10.22 256.46,-9.77"/>
<polygon fill="black" stroke="black" points="256.88,-6.27 246.89,-9.8 256.9,-13.27 256.88,-6.27"/>
<text text-anchor="middle" x="301.93" y="-12.95" font-family="Times,serif" font-size="14.00">100ms</text>
</g>
</g>
</svg>
