<?xml version="1.0" encoding="UTF-8" standalone="no"?>
<!DOCTYPE svg PUBLIC "-//W3C//DTD SVG 1.1//EN"
 "http://www.w3.org/Graphics/SVG/1.1/DTD/svg11.dtd">
<!-- Generated by graphviz version 8.0.5 (20230430.1635)
 -->
<!-- Pages: 1 -->
<svg width="419pt" height="429pt"
 viewBox="0.00 0.00 418.66 428.50" xmlns="http://www.w3.org/2000/svg" xmlns:xlink="http://www.w3.org/1999/xlink">
<g id="graph0" class="graph" transform="scale(1 1) rotate(0) translate(4 424.5)">
<polygon fill="white" stroke="none" points="-4,4 -4,-424.5 414.66,-424.5 414.66,4 -4,4"/>
<text text-anchor="middle" x="205.33" y="-397.5" font-family="Times,serif" font-size="20.00">Simple Sumo Robot</text>
<!-- Home -->
<g id="node1" class="node">
<title>Home</title>
<polygon fill="lightgray" stroke="black" points="196.38,-354.05 198.6,-354.15 200.79,-354.3 202.95,-354.49 205.07,-354.74 207.14,-355.03 209.15,-355.36 211.1,-355.75 212.98,-356.18 214.77,-356.65 216.48,-357.16 218.1,-357.71 219.62,-358.31 221.04,-358.94 222.36,-359.61 223.56,-360.31 224.65,-361.04 225.62,-361.8 226.48,-362.59 227.22,-363.41 227.84,-364.25 228.34,-365.11 228.73,-365.99 229,-366.89 229.15,-367.8 229.19,-368.72 229.12,-369.65 228.95,-370.59 228.67,-371.53 228.29,-372.47 227.82,-373.41 227.26,-374.35 226.61,-375.28 225.88,-376.2 225.07,-377.11 224.19,-378.01 223.25,-378.89 222.24,-379.75 221.18,-380.59 220.06,-381.41 218.89,-382.2 217.69,-382.96 216.44,-383.69 215.16,-384.39 213.85,-385.06 212.51,-385.69 211.14,-386.29 209.76,-386.84 208.35,-387.35 206.93,-387.82 205.5,-388.25 204.06,-388.64 202.61,-388.97 201.15,-389.26 199.68,-389.51 198.21,-389.7 196.73,-389.85 195.26,-389.95 193.78,-390 192.3,-390 190.82,-389.95 189.34,-389.85 187.87,-389.7 186.4,-389.51 184.93,-389.26 183.47,-388.97 182.02,-388.64 180.57,-388.25 179.14,-387.82 177.72,-387.35 176.32,-386.84 174.93,-386.29 173.57,-385.69 172.23,-385.06 170.92,-384.39 169.63,-383.69 168.39,-382.96 167.18,-382.2 166.02,-381.41 164.9,-380.59 163.83,-379.75 162.83,-378.89 161.88,-378.01 161,-377.11 160.2,-376.2 159.47,-375.28 158.82,-374.35 158.25,-373.41 157.78,-372.47 157.4,-371.53 157.13,-370.59 156.95,-369.65 156.88,-368.72 156.92,-367.8 157.08,-366.89 157.35,-365.99 157.73,-365.11 158.23,-364.25 158.86,-363.41 159.59,-362.59 160.45,-361.8 161.43,-361.04 162.52,-360.31 163.72,-359.61 165.03,-358.94 166.45,-358.31 167.97,-357.71 169.59,-357.16 171.3,-356.65 173.1,-356.18 174.97,-355.75 176.92,-355.36 178.93,-355.03 181,-354.74 183.12,-354.49 185.28,-354.3 187.48,-354.15 189.69,-354.05 191.92,-354 194.15,-354 196.38,-354.05"/>
<text text-anchor="middle" x="193.04" y="-366.95" font-family="Times,serif" font-size="14.00">Home</text>
</g>
<!-- Wait -->
<g id="node2" class="node">
<title>Wait</title>
<polygon fill="lightgray" stroke="black" points="195.83,-265.55 197.68,-265.65 199.5,-265.8 201.31,-265.99 203.07,-266.24 204.8,-266.53 206.48,-266.86 208.11,-267.25 209.67,-267.68 211.17,-268.15 212.6,-268.66 213.95,-269.21 215.21,-269.81 216.4,-270.44 217.49,-271.11 218.5,-271.81 219.41,-272.54 220.22,-273.3 220.93,-274.09 221.55,-274.91 222.07,-275.75 222.49,-276.61 222.81,-277.49 223.03,-278.39 223.16,-279.3 223.2,-280.22 223.14,-281.15 222.99,-282.09 222.76,-283.03 222.45,-283.97 222.05,-284.91 221.58,-285.85 221.04,-286.78 220.43,-287.7 219.76,-288.61 219.03,-289.51 218.24,-290.39 217.4,-291.25 216.51,-292.09 215.58,-292.91 214.61,-293.7 213.6,-294.46 212.56,-295.19 211.49,-295.89 210.4,-296.56 209.28,-297.19 208.14,-297.79 206.98,-298.34 205.81,-298.85 204.63,-299.32 203.43,-299.75 202.23,-300.14 201.02,-300.47 199.8,-300.76 198.58,-301.01 197.35,-301.2 196.12,-301.35 194.89,-301.45 193.65,-301.5 192.42,-301.5 191.19,-301.45 189.95,-301.35 188.72,-301.2 187.5,-301.01 186.27,-300.76 185.06,-300.47 183.84,-300.14 182.64,-299.75 181.45,-299.32 180.26,-298.85 179.09,-298.34 177.94,-297.79 176.8,-297.19 175.68,-296.56 174.58,-295.89 173.52,-295.19 172.48,-294.46 171.47,-293.7 170.5,-292.91 169.57,-292.09 168.68,-291.25 167.84,-290.39 167.05,-289.51 166.32,-288.61 165.64,-287.7 165.03,-286.78 164.49,-285.85 164.02,-284.91 163.63,-283.97 163.31,-283.03 163.08,-282.09 162.94,-281.15 162.88,-280.22 162.91,-279.3 163.04,-278.39 163.27,-277.49 163.59,-276.61 164.01,-275.75 164.52,-274.91 165.14,-274.09 165.86,-273.3 166.67,-272.54 167.58,-271.81 168.58,-271.11 169.68,-270.44 170.86,-269.81 172.13,-269.21 173.48,-268.66 174.91,-268.15 176.4,-267.68 177.97,-267.25 179.59,-266.86 181.27,-266.53 183,-266.24 184.77,-265.99 186.57,-265.8 188.4,-265.65 190.25,-265.55 192.11,-265.5 193.97,-265.5 195.83,-265.55"/>
<text text-anchor="middle" x="193.04" y="-278.45" font-family="Times,serif" font-size="14.00">Wait</text>
</g>
<!-- Home&#45;&gt;Wait -->
<g id="edge1" class="edge">
<title>Home&#45;&gt;Wait</title>
<path fill="none" stroke="black" d="M193.04,-353.91C193.04,-342.14 193.04,-326.23 193.04,-312.61"/>
<polygon fill="black" stroke="black" points="196.54,-312.85 193.04,-302.85 189.54,-312.85 196.54,-312.85"/>
<text text-anchor="middle" x="216.29" y="-322.7" font-family="Times,serif" font-size="14.00">Turn On</text>
</g>
<!-- Wait&#45;&gt;Wait -->
<g id="edge2" class="edge">
<title>Wait&#45;&gt;Wait</title>
<path fill="none" stroke="black" d="M218.5,-290.68C238.59,-293.46 259.2,-291.06 259.2,-283.5 259.2,-277.83 247.62,-275.07 233.36,-275.21"/>
<polygon fill="black" stroke="black" points="233.41,-271.76 223.63,-275.82 233.82,-278.75 233.41,-271.76"/>
<text text-anchor="middle" x="265.2" y="-278.45" font-family="Times,serif" font-size="14.00">5s</text>
</g>
<!-- Opponent Seek -->
<g id="node3" class="node">
<title>Opponent Seek</title>
<polygon fill="lightgray" stroke="black" points="199.71,-177.05 204.13,-177.15 208.5,-177.3 212.81,-177.49 217.04,-177.74 221.17,-178.03 225.19,-178.36 229.08,-178.75 232.82,-179.18 236.4,-179.65 239.81,-180.16 243.04,-180.71 246.08,-181.31 248.91,-181.94 251.53,-182.61 253.93,-183.31 256.1,-184.04 258.04,-184.8 259.75,-185.59 261.23,-186.41 262.47,-187.25 263.47,-188.11 264.24,-188.99 264.78,-189.89 265.08,-190.8 265.16,-191.72 265.03,-192.65 264.68,-193.59 264.12,-194.53 263.37,-195.47 262.43,-196.41 261.31,-197.35 260.01,-198.28 258.55,-199.2 256.94,-200.11 255.19,-201.01 253.31,-201.89 251.3,-202.75 249.17,-203.59 246.94,-204.41 244.62,-205.2 242.21,-205.96 239.72,-206.69 237.17,-207.39 234.55,-208.06 231.88,-208.69 229.15,-209.29 226.39,-209.84 223.59,-210.35 220.76,-210.82 217.9,-211.25 215.02,-211.64 212.13,-211.97 209.21,-212.26 206.29,-212.51 203.35,-212.7 200.41,-212.85 197.46,-212.95 194.51,-213 191.56,-213 188.61,-212.95 185.67,-212.85 182.72,-212.7 179.79,-212.51 176.86,-212.26 173.95,-211.97 171.05,-211.64 168.17,-211.25 165.31,-210.82 162.48,-210.35 159.68,-209.84 156.92,-209.29 154.2,-208.69 151.52,-208.06 148.91,-207.39 146.35,-206.69 143.86,-205.96 141.45,-205.2 139.13,-204.41 136.9,-203.59 134.78,-202.75 132.77,-201.89 130.88,-201.01 129.13,-200.11 127.52,-199.2 126.06,-198.28 124.77,-197.35 123.64,-196.41 122.7,-195.47 121.95,-194.53 121.4,-193.59 121.05,-192.65 120.91,-191.72 120.99,-190.8 121.3,-189.89 121.83,-188.99 122.6,-188.11 123.61,-187.25 124.84,-186.41 126.32,-185.59 128.03,-184.8 129.98,-184.04 132.15,-183.31 134.55,-182.61 137.17,-181.94 140,-181.31 143.03,-180.71 146.26,-180.16 149.67,-179.65 153.26,-179.18 157,-178.75 160.88,-178.36 164.9,-178.03 169.03,-177.74 173.26,-177.49 177.57,-177.3 181.94,-177.15 186.36,-177.05 190.81,-177 195.27,-177 199.71,-177.05"/>
<text text-anchor="middle" x="193.04" y="-189.95" font-family="Times,serif" font-size="14.00">Opponent Seek</text>
</g>
<!-- Wait&#45;&gt;Opponent Seek -->
<g id="edge3" class="edge">
<title>Wait&#45;&gt;Opponent Seek</title>
<path fill="none" stroke="black" d="M193.04,-265.41C193.04,-253.64 193.04,-237.73 193.04,-224.11"/>
<polygon fill="black" stroke="black" points="196.54,-224.35 193.04,-214.35 189.54,-224.35 196.54,-224.35"/>
<text text-anchor="middle" x="211.04" y="-234.2" font-family="Times,serif" font-size="14.00">T &gt; 5s</text>
</g>
<!-- Opponent Seek&#45;&gt;Opponent Seek -->
<g id="edge4" class="edge">
<title>Opponent Seek&#45;&gt;Opponent Seek</title>
<path fill="none" stroke="black" d="M251.43,-203.15C278.04,-203.98 301.16,-201.27 301.16,-195 301.16,-190.54 289.47,-187.88 273.15,-187.02"/>
<polygon fill="black" stroke="black" points="273.55,-183.5 263.45,-186.71 273.35,-190.5 273.55,-183.5"/>
<text text-anchor="middle" x="355.91" y="-189.95" font-family="Times,serif" font-size="14.00">Opponent not found</text>
</g>
<!-- Move Forward -->
<g id="node4" class="node">
<title>Move Forward</title>
<polygon fill="lightgray" stroke="black" points="77.61,-88.55 81.96,-88.65 86.27,-88.8 90.51,-88.99 94.68,-89.24 98.75,-89.53 102.7,-89.86 106.53,-90.25 110.22,-90.68 113.75,-91.15 117.11,-91.66 120.29,-92.21 123.28,-92.81 126.06,-93.44 128.64,-94.11 131.01,-94.81 133.15,-95.54 135.06,-96.3 136.75,-97.09 138.2,-97.91 139.42,-98.75 140.41,-99.61 141.16,-100.49 141.69,-101.39 141.99,-102.3 142.07,-103.22 141.94,-104.15 141.6,-105.09 141.05,-106.03 140.31,-106.97 139.38,-107.91 138.28,-108.85 137,-109.78 135.56,-110.7 133.98,-111.61 132.25,-112.51 130.39,-113.39 128.42,-114.25 126.32,-115.09 124.13,-115.91 121.84,-116.7 119.47,-117.46 117.02,-118.19 114.5,-118.89 111.92,-119.56 109.29,-120.19 106.61,-120.79 103.89,-121.34 101.13,-121.85 98.34,-122.32 95.53,-122.75 92.69,-123.14 89.84,-123.47 86.97,-123.76 84.09,-124.01 81.2,-124.2 78.3,-124.35 75.4,-124.45 72.49,-124.5 69.58,-124.5 66.68,-124.45 63.78,-124.35 60.88,-124.2 57.99,-124.01 55.11,-123.76 52.24,-123.47 49.38,-123.14 46.55,-122.75 43.73,-122.32 40.94,-121.85 38.19,-121.34 35.47,-120.79 32.79,-120.19 30.15,-119.56 27.57,-118.89 25.06,-118.19 22.61,-117.46 20.23,-116.7 17.95,-115.91 15.75,-115.09 13.66,-114.25 11.68,-113.39 9.82,-112.51 8.1,-111.61 6.51,-110.7 5.07,-109.78 3.8,-108.85 2.69,-107.91 1.77,-106.97 1.02,-106.03 0.48,-105.09 0.13,-104.15 0,-103.22 0.08,-102.3 0.38,-101.39 0.91,-100.49 1.67,-99.61 2.66,-98.75 3.88,-97.91 5.33,-97.09 7.01,-96.3 8.93,-95.54 11.07,-94.81 13.43,-94.11 16.01,-93.44 18.8,-92.81 21.79,-92.21 24.97,-91.66 28.33,-91.15 31.86,-90.68 35.54,-90.25 39.37,-89.86 43.33,-89.53 47.39,-89.24 51.56,-88.99 55.8,-88.8 60.11,-88.65 64.46,-88.55 68.84,-88.5 73.23,-88.5 77.61,-88.55"/>
<text text-anchor="middle" x="71.04" y="-101.45" font-family="Times,serif" font-size="14.00">Move Forward</text>
</g>
<!-- Opponent Seek&#45;&gt;Move Forward -->
<g id="edge5" class="edge">
<title>Opponent Seek&#45;&gt;Move Forward</title>
<path fill="none" stroke="black" d="M169.51,-177.32C150.33,-163.72 123.08,-144.4 102.11,-129.53"/>
<polygon fill="black" stroke="black" points="104.44,-126.18 94.25,-123.25 100.39,-131.89 104.44,-126.18"/>
<text text-anchor="middle" x="187.29" y="-145.7" font-family="Times,serif" font-size="14.00">Opponent found</text>
</g>
<!-- Move Forward&#45;&gt;Move Forward -->
<g id="edge6" class="edge">
<title>Move Forward&#45;&gt;Move Forward</title>
<path fill="none" stroke="black" d="M128.57,-114.64C155.02,-115.5 178.07,-112.79 178.07,-106.5 178.07,-102.03 166.41,-99.36 150.15,-98.51"/>
<polygon fill="black" stroke="black" points="150.59,-94.99 140.5,-98.21 150.39,-101.99 150.59,-94.99"/>
<text text-anchor="middle" x="220.07" y="-101.45" font-family="Times,serif" font-size="14.00">Edge not found</text>
</g>
<!-- Move Back -->
<g id="node5" class="node">
<title>Move Back</title>
<polygon fill="lightgray" stroke="black" points="198.4,-0.05 201.95,-0.15 205.47,-0.3 208.93,-0.49 212.33,-0.74 215.65,-1.03 218.87,-1.36 222,-1.75 225,-2.18 227.88,-2.65 230.62,-3.16 233.22,-3.71 235.66,-4.31 237.93,-4.94 240.03,-5.61 241.96,-6.31 243.71,-7.04 245.27,-7.8 246.65,-8.59 247.83,-9.41 248.83,-10.25 249.63,-11.11 250.25,-11.99 250.68,-12.89 250.93,-13.8 250.99,-14.72 250.88,-15.65 250.6,-16.59 250.16,-17.53 249.55,-18.47 248.8,-19.41 247.89,-20.35 246.85,-21.28 245.68,-22.2 244.39,-23.11 242.98,-24.01 241.46,-24.89 239.85,-25.75 238.14,-26.59 236.35,-27.41 234.49,-28.2 232.55,-28.96 230.55,-29.69 228.5,-30.39 226.39,-31.06 224.25,-31.69 222.06,-32.29 219.84,-32.84 217.59,-33.35 215.31,-33.82 213.02,-34.25 210.7,-34.64 208.38,-34.97 206.03,-35.26 203.68,-35.51 201.33,-35.7 198.96,-35.85 196.59,-35.95 194.22,-36 191.85,-36 189.48,-35.95 187.11,-35.85 184.75,-35.7 182.39,-35.51 180.04,-35.26 177.7,-34.97 175.37,-34.64 173.06,-34.25 170.76,-33.82 168.49,-33.35 166.24,-32.84 164.02,-32.29 161.83,-31.69 159.68,-31.06 157.58,-30.39 155.52,-29.69 153.52,-28.96 151.59,-28.2 149.72,-27.41 147.93,-26.59 146.23,-25.75 144.61,-24.89 143.09,-24.01 141.69,-23.11 140.39,-22.2 139.22,-21.28 138.18,-20.35 137.28,-19.41 136.52,-18.47 135.92,-17.53 135.47,-16.59 135.19,-15.65 135.08,-14.72 135.15,-13.8 135.39,-12.89 135.82,-11.99 136.44,-11.11 137.25,-10.25 138.24,-9.41 139.43,-8.59 140.8,-7.8 142.37,-7.04 144.11,-6.31 146.04,-5.61 148.14,-4.94 150.42,-4.31 152.86,-3.71 155.45,-3.16 158.19,-2.65 161.07,-2.18 164.08,-1.75 167.2,-1.36 170.43,-1.03 173.75,-0.74 177.15,-0.49 180.61,-0.3 184.12,-0.15 187.67,-0.05 191.25,0 194.83,0 198.4,-0.05"/>
<text text-anchor="middle" x="193.04" y="-12.95" font-family="Times,serif" font-size="14.00">Move Back</text>
</g>
<!-- Move Forward&#45;&gt;Move Back -->
<g id="edge7" class="edge">
<title>Move Forward&#45;&gt;Move Back</title>
<path fill="none" stroke="black" d="M94.56,-88.82C113.98,-75.05 141.68,-55.41 162.76,-40.47"/>
<polygon fill="black" stroke="black" points="164.5,-42.82 170.63,-34.18 160.45,-37.11 164.5,-42.82"/>
<text text-anchor="middle" x="174.54" y="-57.2" font-family="Times,serif" font-size="14.00">Edge found</text>
</g>
<!-- Move Back&#45;&gt;Opponent Seek -->
<g id="edge9" class="edge">
<title>Move Back&#45;&gt;Opponent Seek</title>
<path fill="none" stroke="black" d="M215.41,-34.01C231.76,-46.44 252.64,-65.71 262.04,-88.5 274.54,-118.85 262.39,-134.97 240.04,-159 236.24,-163.09 231.91,-167.03 227.45,-170.7"/>
<polygon fill="black" stroke="black" points="225.58,-168.5 219.83,-177.39 229.87,-174.03 225.58,-168.5"/>
<text text-anchor="middle" x="298.41" y="-101.45" font-family="Times,serif" font-size="14.00">T &gt; 100ms</text>
</g>
<!-- Move Back&#45;&gt;Move Back -->
<g id="edge8" class="edge">
<title>Move Back&#45;&gt;Move Back</title>
<path fill="none" stroke="black" d="M240.41,-26.01C264.91,-27.24 286.99,-24.57 286.99,-18 286.99,-13.21 275.27,-10.5 259.44,-9.85"/>
<polygon fill="black" stroke="black" points="259.56,-6.34 249.52,-9.73 259.47,-13.34 259.56,-6.34"/>
<text text-anchor="middle" x="305.37" y="-12.95" font-family="Times,serif" font-size="14.00">100ms</text>
</g>
</g>
</svg>
