<?xml version="1.0" encoding="UTF-8" standalone="no"?>
<!DOCTYPE svg PUBLIC "-//W3C//DTD SVG 1.1//EN"
 "http://www.w3.org/Graphics/SVG/1.1/DTD/svg11.dtd">
<!-- Generated by graphviz version 8.0.5 (20230430.1635)
 -->
<!-- Pages: 1 -->
<svg width="442pt" height="429pt"
 viewBox="0.00 0.00 441.66 428.50" xmlns="http://www.w3.org/2000/svg" xmlns:xlink="http://www.w3.org/1999/xlink">
<g id="graph0" class="graph" transform="scale(1 1) rotate(0) translate(4 424.5)">
<polygon fill="white" stroke="none" points="-4,4 -4,-424.5 437.66,-424.5 437.66,4 -4,4"/>
<text text-anchor="middle" x="216.83" y="-397.5" font-family="Times,serif" font-size="20.00">Simple Sumo Robot</text>
<!-- Home -->
<g id="node1" class="node">
<title>Home</title>
<polygon fill="lightgray" stroke="black" points="204.38,-354.05 206.6,-354.15 208.79,-354.3 210.95,-354.49 213.07,-354.74 215.14,-355.03 217.15,-355.36 219.1,-355.75 220.98,-356.18 222.77,-356.65 224.48,-357.16 226.1,-357.71 227.62,-358.31 229.04,-358.94 230.36,-359.61 231.56,-360.31 232.65,-361.04 233.62,-361.8 234.48,-362.59 235.22,-363.41 235.84,-364.25 236.34,-365.11 236.73,-365.99 237,-366.89 237.15,-367.8 237.19,-368.72 237.12,-369.65 236.95,-370.59 236.67,-371.53 236.29,-372.47 235.82,-373.41 235.26,-374.35 234.61,-375.28 233.88,-376.2 233.07,-377.11 232.19,-378.01 231.25,-378.89 230.24,-379.75 229.18,-380.59 228.06,-381.41 226.89,-382.2 225.69,-382.96 224.44,-383.69 223.16,-384.39 221.85,-385.06 220.51,-385.69 219.14,-386.29 217.76,-386.84 216.35,-387.35 214.93,-387.82 213.5,-388.25 212.06,-388.64 210.61,-388.97 209.15,-389.26 207.68,-389.51 206.21,-389.7 204.73,-389.85 203.26,-389.95 201.78,-390 200.3,-390 198.82,-389.95 197.34,-389.85 195.87,-389.7 194.4,-389.51 192.93,-389.26 191.47,-388.97 190.02,-388.64 188.57,-388.25 187.14,-387.82 185.72,-387.35 184.32,-386.84 182.93,-386.29 181.57,-385.69 180.23,-385.06 178.92,-384.39 177.63,-383.69 176.39,-382.96 175.18,-382.2 174.02,-381.41 172.9,-380.59 171.83,-379.75 170.83,-378.89 169.88,-378.01 169,-377.11 168.2,-376.2 167.47,-375.28 166.82,-374.35 166.25,-373.41 165.78,-372.47 165.4,-371.53 165.13,-370.59 164.95,-369.65 164.88,-368.72 164.92,-367.8 165.08,-366.89 165.35,-365.99 165.73,-365.11 166.23,-364.25 166.86,-363.41 167.59,-362.59 168.45,-361.8 169.43,-361.04 170.52,-360.31 171.72,-359.61 173.03,-358.94 174.45,-358.31 175.97,-357.71 177.59,-357.16 179.3,-356.65 181.1,-356.18 182.97,-355.75 184.92,-355.36 186.93,-355.03 189,-354.74 191.12,-354.49 193.28,-354.3 195.48,-354.15 197.69,-354.05 199.92,-354 202.15,-354 204.38,-354.05"/>
<text text-anchor="middle" x="201.04" y="-366.95" font-family="Times,serif" font-size="14.00">Home</text>
</g>
<!-- Wait -->
<g id="node2" class="node">
<title>Wait</title>
<polygon fill="lightgray" stroke="black" points="203.83,-265.55 205.68,-265.65 207.5,-265.8 209.31,-265.99 211.07,-266.24 212.8,-266.53 214.48,-266.86 216.11,-267.25 217.67,-267.68 219.17,-268.15 220.6,-268.66 221.95,-269.21 223.21,-269.81 224.4,-270.44 225.49,-271.11 226.5,-271.81 227.41,-272.54 228.22,-273.3 228.93,-274.09 229.55,-274.91 230.07,-275.75 230.49,-276.61 230.81,-277.49 231.03,-278.39 231.16,-279.3 231.2,-280.22 231.14,-281.15 230.99,-282.09 230.76,-283.03 230.45,-283.97 230.05,-284.91 229.58,-285.85 229.04,-286.78 228.43,-287.7 227.76,-288.61 227.03,-289.51 226.24,-290.39 225.4,-291.25 224.51,-292.09 223.58,-292.91 222.61,-293.7 221.6,-294.46 220.56,-295.19 219.49,-295.89 218.4,-296.56 217.28,-297.19 216.14,-297.79 214.98,-298.34 213.81,-298.85 212.63,-299.32 211.43,-299.75 210.23,-300.14 209.02,-300.47 207.8,-300.76 206.58,-301.01 205.35,-301.2 204.12,-301.35 202.89,-301.45 201.65,-301.5 200.42,-301.5 199.19,-301.45 197.95,-301.35 196.72,-301.2 195.5,-301.01 194.27,-300.76 193.06,-300.47 191.84,-300.14 190.64,-299.75 189.45,-299.32 188.26,-298.85 187.09,-298.34 185.94,-297.79 184.8,-297.19 183.68,-296.56 182.58,-295.89 181.52,-295.19 180.48,-294.46 179.47,-293.7 178.5,-292.91 177.57,-292.09 176.68,-291.25 175.84,-290.39 175.05,-289.51 174.32,-288.61 173.64,-287.7 173.03,-286.78 172.49,-285.85 172.02,-284.91 171.63,-283.97 171.31,-283.03 171.08,-282.09 170.94,-281.15 170.88,-280.22 170.91,-279.3 171.04,-278.39 171.27,-277.49 171.59,-276.61 172.01,-275.75 172.52,-274.91 173.14,-274.09 173.86,-273.3 174.67,-272.54 175.58,-271.81 176.58,-271.11 177.68,-270.44 178.86,-269.81 180.13,-269.21 181.48,-268.66 182.91,-268.15 184.4,-267.68 185.97,-267.25 187.59,-266.86 189.27,-266.53 191,-266.24 192.77,-265.99 194.57,-265.8 196.4,-265.65 198.25,-265.55 200.11,-265.5 201.97,-265.5 203.83,-265.55"/>
<text text-anchor="middle" x="201.04" y="-278.45" font-family="Times,serif" font-size="14.00">Wait</text>
</g>
<!-- Home&#45;&gt;Wait -->
<g id="edge1" class="edge">
<title>Home&#45;&gt;Wait</title>
<path fill="none" stroke="black" d="M201.04,-353.91C201.04,-342.14 201.04,-326.23 201.04,-312.61"/>
<polygon fill="black" stroke="black" points="204.54,-312.85 201.04,-302.85 197.54,-312.85 204.54,-312.85"/>
<text text-anchor="middle" x="231.41" y="-322.7" font-family="Times,serif" font-size="14.00"> &#160;Turn On &#160;</text>
</g>
<!-- Wait&#45;&gt;Wait -->
<g id="edge2" class="edge">
<title>Wait&#45;&gt;Wait</title>
<path fill="none" stroke="black" d="M226.5,-290.68C246.59,-293.46 267.2,-291.06 267.2,-283.5 267.2,-277.83 255.62,-275.07 241.36,-275.21"/>
<polygon fill="black" stroke="black" points="241.41,-271.76 231.63,-275.82 241.82,-278.75 241.41,-271.76"/>
<text text-anchor="middle" x="280.7" y="-278.45" font-family="Times,serif" font-size="14.00"> &#160;5s &#160;</text>
</g>
<!-- Opponent Seek -->
<g id="node3" class="node">
<title>Opponent Seek</title>
<polygon fill="lightgray" stroke="black" points="207.71,-177.05 212.13,-177.15 216.5,-177.3 220.81,-177.49 225.04,-177.74 229.17,-178.03 233.19,-178.36 237.08,-178.75 240.82,-179.18 244.4,-179.65 247.81,-180.16 251.04,-180.71 254.08,-181.31 256.91,-181.94 259.53,-182.61 261.93,-183.31 264.1,-184.04 266.04,-184.8 267.75,-185.59 269.23,-186.41 270.47,-187.25 271.47,-188.11 272.24,-188.99 272.78,-189.89 273.08,-190.8 273.16,-191.72 273.03,-192.65 272.68,-193.59 272.12,-194.53 271.37,-195.47 270.43,-196.41 269.31,-197.35 268.01,-198.28 266.55,-199.2 264.94,-200.11 263.19,-201.01 261.31,-201.89 259.3,-202.75 257.17,-203.59 254.94,-204.41 252.62,-205.2 250.21,-205.96 247.72,-206.69 245.17,-207.39 242.55,-208.06 239.88,-208.69 237.15,-209.29 234.39,-209.84 231.59,-210.35 228.76,-210.82 225.9,-211.25 223.02,-211.64 220.13,-211.97 217.21,-212.26 214.29,-212.51 211.35,-212.7 208.41,-212.85 205.46,-212.95 202.51,-213 199.56,-213 196.61,-212.95 193.67,-212.85 190.72,-212.7 187.79,-212.51 184.86,-212.26 181.95,-211.97 179.05,-211.64 176.17,-211.25 173.31,-210.82 170.48,-210.35 167.68,-209.84 164.92,-209.29 162.2,-208.69 159.52,-208.06 156.91,-207.39 154.35,-206.69 151.86,-205.96 149.45,-205.2 147.13,-204.41 144.9,-203.59 142.78,-202.75 140.77,-201.89 138.88,-201.01 137.13,-200.11 135.52,-199.2 134.06,-198.28 132.77,-197.35 131.64,-196.41 130.7,-195.47 129.95,-194.53 129.4,-193.59 129.05,-192.65 128.91,-191.72 128.99,-190.8 129.3,-189.89 129.83,-188.99 130.6,-188.11 131.61,-187.25 132.84,-186.41 134.32,-185.59 136.03,-184.8 137.98,-184.04 140.15,-183.31 142.55,-182.61 145.17,-181.94 148,-181.31 151.03,-180.71 154.26,-180.16 157.67,-179.65 161.26,-179.18 165,-178.75 168.88,-178.36 172.9,-178.03 177.03,-177.74 181.26,-177.49 185.57,-177.3 189.94,-177.15 194.36,-177.05 198.81,-177 203.27,-177 207.71,-177.05"/>
<text text-anchor="middle" x="201.04" y="-189.95" font-family="Times,serif" font-size="14.00">Opponent Seek</text>
</g>
<!-- Wait&#45;&gt;Opponent Seek -->
<g id="edge3" class="edge">
<title>Wait&#45;&gt;Opponent Seek</title>
<path fill="none" stroke="black" d="M201.04,-265.41C201.04,-253.64 201.04,-237.73 201.04,-224.11"/>
<polygon fill="black" stroke="black" points="204.54,-224.35 201.04,-214.35 197.54,-224.35 204.54,-224.35"/>
<text text-anchor="middle" x="226.16" y="-234.2" font-family="Times,serif" font-size="14.00"> &#160;T &gt; 5s &#160;</text>
</g>
<!-- Opponent Seek&#45;&gt;Opponent Seek -->
<g id="edge4" class="edge">
<title>Opponent Seek&#45;&gt;Opponent Seek</title>
<path fill="none" stroke="black" d="M259.43,-203.15C286.04,-203.98 309.16,-201.27 309.16,-195 309.16,-190.54 297.47,-187.88 281.15,-187.02"/>
<polygon fill="black" stroke="black" points="281.55,-183.5 271.45,-186.71 281.35,-190.5 281.55,-183.5"/>
<text text-anchor="middle" x="371.41" y="-189.95" font-family="Times,serif" font-size="14.00"> &#160;Opponent not found &#160;</text>
</g>
<!-- Move Forward -->
<g id="node4" class="node">
<title>Move Forward</title>
<polygon fill="lightgray" stroke="black" points="77.61,-88.55 81.96,-88.65 86.27,-88.8 90.51,-88.99 94.68,-89.24 98.75,-89.53 102.7,-89.86 106.53,-90.25 110.22,-90.68 113.75,-91.15 117.11,-91.66 120.29,-92.21 123.28,-92.81 126.06,-93.44 128.64,-94.11 131.01,-94.81 133.15,-95.54 135.06,-96.3 136.75,-97.09 138.2,-97.91 139.42,-98.75 140.41,-99.61 141.16,-100.49 141.69,-101.39 141.99,-102.3 142.07,-103.22 141.94,-104.15 141.6,-105.09 141.05,-106.03 140.31,-106.97 139.38,-107.91 138.28,-108.85 137,-109.78 135.56,-110.7 133.98,-111.61 132.25,-112.51 130.39,-113.39 128.42,-114.25 126.32,-115.09 124.13,-115.91 121.84,-116.7 119.47,-117.46 117.02,-118.19 114.5,-118.89 111.92,-119.56 109.29,-120.19 106.61,-120.79 103.89,-121.34 101.13,-121.85 98.34,-122.32 95.53,-122.75 92.69,-123.14 89.84,-123.47 86.97,-123.76 84.09,-124.01 81.2,-124.2 78.3,-124.35 75.4,-124.45 72.49,-124.5 69.58,-124.5 66.68,-124.45 63.78,-124.35 60.88,-124.2 57.99,-124.01 55.11,-123.76 52.24,-123.47 49.38,-123.14 46.55,-122.75 43.73,-122.32 40.94,-121.85 38.19,-121.34 35.47,-120.79 32.79,-120.19 30.15,-119.56 27.57,-118.89 25.06,-118.19 22.61,-117.46 20.23,-116.7 17.95,-115.91 15.75,-115.09 13.66,-114.25 11.68,-113.39 9.82,-112.51 8.1,-111.61 6.51,-110.7 5.07,-109.78 3.8,-108.85 2.69,-107.91 1.77,-106.97 1.02,-106.03 0.48,-105.09 0.13,-104.15 0,-103.22 0.08,-102.3 0.38,-101.39 0.91,-100.49 1.67,-99.61 2.66,-98.75 3.88,-97.91 5.33,-97.09 7.01,-96.3 8.93,-95.54 11.07,-94.81 13.43,-94.11 16.01,-93.44 18.8,-92.81 21.79,-92.21 24.97,-91.66 28.33,-91.15 31.86,-90.68 35.54,-90.25 39.37,-89.86 43.33,-89.53 47.39,-89.24 51.56,-88.99 55.8,-88.8 60.11,-88.65 64.46,-88.55 68.84,-88.5 73.23,-88.5 77.61,-88.55"/>
<text text-anchor="middle" x="71.04" y="-101.45" font-family="Times,serif" font-size="14.00">Move Forward</text>
</g>
<!-- Opponent Seek&#45;&gt;Move Forward -->
<g id="edge5" class="edge">
<title>Opponent Seek&#45;&gt;Move Forward</title>
<path fill="none" stroke="black" d="M175.97,-177.32C155.44,-163.66 126.23,-144.23 103.84,-129.33"/>
<polygon fill="black" stroke="black" points="105.98,-125.88 95.71,-123.25 102.1,-131.71 105.98,-125.88"/>
<text text-anchor="middle" x="199.79" y="-145.7" font-family="Times,serif" font-size="14.00"> &#160;Opponent found &#160;</text>
</g>
<!-- Move Forward&#45;&gt;Move Forward -->
<g id="edge6" class="edge">
<title>Move Forward&#45;&gt;Move Forward</title>
<path fill="none" stroke="black" d="M128.57,-114.64C155.02,-115.5 178.07,-112.79 178.07,-106.5 178.07,-102.03 166.41,-99.36 150.15,-98.51"/>
<polygon fill="black" stroke="black" points="150.59,-94.99 140.5,-98.21 150.39,-101.99 150.59,-94.99"/>
<text text-anchor="middle" x="227.57" y="-101.45" font-family="Times,serif" font-size="14.00"> &#160;Edge not found &#160;</text>
</g>
<!-- Move Back -->
<g id="node5" class="node">
<title>Move Back</title>
<polygon fill="lightgray" stroke="black" points="206.4,-0.05 209.95,-0.15 213.47,-0.3 216.93,-0.49 220.33,-0.74 223.65,-1.03 226.87,-1.36 230,-1.75 233,-2.18 235.88,-2.65 238.62,-3.16 241.22,-3.71 243.66,-4.31 245.93,-4.94 248.03,-5.61 249.96,-6.31 251.71,-7.04 253.27,-7.8 254.65,-8.59 255.83,-9.41 256.83,-10.25 257.63,-11.11 258.25,-11.99 258.68,-12.89 258.93,-13.8 258.99,-14.72 258.88,-15.65 258.6,-16.59 258.16,-17.53 257.55,-18.47 256.8,-19.41 255.89,-20.35 254.85,-21.28 253.68,-22.2 252.39,-23.11 250.98,-24.01 249.46,-24.89 247.85,-25.75 246.14,-26.59 244.35,-27.41 242.49,-28.2 240.55,-28.96 238.55,-29.69 236.5,-30.39 234.39,-31.06 232.25,-31.69 230.06,-32.29 227.84,-32.84 225.59,-33.35 223.31,-33.82 221.02,-34.25 218.7,-34.64 216.38,-34.97 214.03,-35.26 211.68,-35.51 209.33,-35.7 206.96,-35.85 204.59,-35.95 202.22,-36 199.85,-36 197.48,-35.95 195.11,-35.85 192.75,-35.7 190.39,-35.51 188.04,-35.26 185.7,-34.97 183.37,-34.64 181.06,-34.25 178.76,-33.82 176.49,-33.35 174.24,-32.84 172.02,-32.29 169.83,-31.69 167.68,-31.06 165.58,-30.39 163.52,-29.69 161.52,-28.96 159.59,-28.2 157.72,-27.41 155.93,-26.59 154.23,-25.75 152.61,-24.89 151.09,-24.01 149.69,-23.11 148.39,-22.2 147.22,-21.28 146.18,-20.35 145.28,-19.41 144.52,-18.47 143.92,-17.53 143.47,-16.59 143.19,-15.65 143.08,-14.72 143.15,-13.8 143.39,-12.89 143.82,-11.99 144.44,-11.11 145.25,-10.25 146.24,-9.41 147.43,-8.59 148.8,-7.8 150.37,-7.04 152.11,-6.31 154.04,-5.61 156.14,-4.94 158.42,-4.31 160.86,-3.71 163.45,-3.16 166.19,-2.65 169.07,-2.18 172.08,-1.75 175.2,-1.36 178.43,-1.03 181.75,-0.74 185.15,-0.49 188.61,-0.3 192.12,-0.15 195.67,-0.05 199.25,0 202.83,0 206.4,-0.05"/>
<text text-anchor="middle" x="201.04" y="-12.95" font-family="Times,serif" font-size="14.00">Move Back</text>
</g>
<!-- Move Forward&#45;&gt;Move Back -->
<g id="edge7" class="edge">
<title>Move Forward&#45;&gt;Move Back</title>
<path fill="none" stroke="black" d="M95.8,-89.03C116.77,-75.07 146.97,-54.97 169.64,-39.89"/>
<polygon fill="black" stroke="black" points="171.16,-42.42 177.54,-33.97 167.28,-36.59 171.16,-42.42"/>
<text text-anchor="middle" x="187.04" y="-57.2" font-family="Times,serif" font-size="14.00"> &#160;Edge found &#160;</text>
</g>
<!-- Move Back&#45;&gt;Opponent Seek -->
<g id="edge9" class="edge">
<title>Move Back&#45;&gt;Opponent Seek</title>
<path fill="none" stroke="black" d="M225.99,-33.74C243.91,-45.89 266.66,-64.94 277.04,-88.5 290.03,-118 281.93,-135.34 260.04,-159 255.47,-163.93 250.05,-168.39 244.38,-172.35"/>
<polygon fill="black" stroke="black" points="242.87,-169.8 236.33,-178.14 246.64,-175.69 242.87,-169.8"/>
<text text-anchor="middle" x="321.54" y="-101.45" font-family="Times,serif" font-size="14.00"> &#160;T &gt; 100ms &#160;</text>
</g>
<!-- Move Back&#45;&gt;Move Back -->
<g id="edge8" class="edge">
<title>Move Back&#45;&gt;Move Back</title>
<path fill="none" stroke="black" d="M248.41,-26.01C272.91,-27.24 294.99,-24.57 294.99,-18 294.99,-13.21 283.27,-10.5 267.44,-9.85"/>
<polygon fill="black" stroke="black" points="267.56,-6.34 257.52,-9.73 267.47,-13.34 267.56,-6.34"/>
<text text-anchor="middle" x="320.87" y="-12.95" font-family="Times,serif" font-size="14.00"> &#160;100ms &#160;</text>
</g>
</g>
</svg>
