<?xml version="1.0" encoding="UTF-8" standalone="no"?>
<!DOCTYPE svg PUBLIC "-//W3C//DTD SVG 1.1//EN"
 "http://www.w3.org/Graphics/SVG/1.1/DTD/svg11.dtd">
<!-- Generated by graphviz version 8.0.5 (20230430.1635)
 -->
<!-- Pages: 1 -->
<svg width="374pt" height="188pt"
 viewBox="0.00 0.00 373.75 188.00" xmlns="http://www.w3.org/2000/svg" xmlns:xlink="http://www.w3.org/1999/xlink">
<g id="graph0" class="graph" transform="scale(1 1) rotate(0) translate(4 184)">
<polygon fill="white" stroke="none" points="-4,4 -4,-184 369.75,-184 369.75,4 -4,4"/>
<!-- System A -->
<g id="node1" class="node">
<title>System A</title>
<path fill="#1168bd" stroke="black" d="M258.5,-180C258.5,-180 213.25,-180 213.25,-180 207.25,-180 201.25,-174 201.25,-168 201.25,-168 201.25,-156 201.25,-156 201.25,-150 207.25,-144 213.25,-144 213.25,-144 258.5,-144 258.5,-144 264.5,-144 270.5,-150 270.5,-156 270.5,-156 270.5,-168 270.5,-168 270.5,-174 264.5,-180 258.5,-180"/>
<text text-anchor="middle" x="235.88" y="-156.95" font-family="Times,serif" font-size="14.00" fill="white">System A</text>
</g>
<!-- Container A1 -->
<g id="node2" class="node">
<title>Container A1</title>
<polygon fill="#4392f1" stroke="black" points="227.25,-108 138.5,-108 138.5,-104 134.5,-104 134.5,-100 138.5,-100 138.5,-80 134.5,-80 134.5,-76 138.5,-76 138.5,-72 227.25,-72 227.25,-108"/>
<polyline fill="none" stroke="black" points="138.5,-104 142.5,-104 142.5,-100 138.5,-100"/>
<polyline fill="none" stroke="black" points="138.5,-80 142.5,-80 142.5,-76 138.5,-76"/>
<text text-anchor="middle" x="182.88" y="-84.95" font-family="Times,serif" font-size="14.00" fill="white">Container A1</text>
</g>
<!-- System A&#45;&gt;Container A1 -->
<g id="edge1" class="edge">
<title>System A&#45;&gt;Container A1</title>
<path fill="none" stroke="black" d="M222.77,-143.7C216.61,-135.56 209.14,-125.69 202.33,-116.7"/>
<polygon fill="black" stroke="black" points="204.65,-114.96 195.83,-109.1 199.07,-119.19 204.65,-114.96"/>
</g>
<!-- Container A2 -->
<g id="node3" class="node">
<title>Container A2</title>
<polygon fill="#4392f1" stroke="black" points="344.25,-108 255.5,-108 255.5,-104 251.5,-104 251.5,-100 255.5,-100 255.5,-80 251.5,-80 251.5,-76 255.5,-76 255.5,-72 344.25,-72 344.25,-108"/>
<polyline fill="none" stroke="black" points="255.5,-104 259.5,-104 259.5,-100 255.5,-100"/>
<polyline fill="none" stroke="black" points="255.5,-80 259.5,-80 259.5,-76 255.5,-76"/>
<text text-anchor="middle" x="299.88" y="-84.95" font-family="Times,serif" font-size="14.00" fill="white">Container A2</text>
</g>
<!-- System A&#45;&gt;Container A2 -->
<g id="edge2" class="edge">
<title>System A&#45;&gt;Container A2</title>
<path fill="none" stroke="black" d="M251.7,-143.7C259.29,-135.39 268.54,-125.28 276.89,-116.14"/>
<polygon fill="black" stroke="black" points="279.07,-118.85 283.24,-109.1 273.91,-114.12 279.07,-118.85"/>
</g>
<!-- Component A1.1 -->
<g id="node4" class="node">
<title>Component A1.1</title>
<path fill="#7fa8d4" stroke="black" d="M97.75,-36C97.75,-36 12,-36 12,-36 6,-36 0,-30 0,-24 0,-24 0,-12 0,-12 0,-6 6,0 12,0 12,0 97.75,0 97.75,0 103.75,0 109.75,-6 109.75,-12 109.75,-12 109.75,-24 109.75,-24 109.75,-30 103.75,-36 97.75,-36"/>
<text text-anchor="middle" x="54.88" y="-12.95" font-family="Times,serif" font-size="14.00" fill="white">Component A1.1</text>
</g>
<!-- Container A1&#45;&gt;Component A1.1 -->
<g id="edge3" class="edge">
<title>Container A1&#45;&gt;Component A1.1</title>
<path fill="none" stroke="black" d="M150.91,-71.52C134.29,-62.43 113.78,-51.22 96,-41.49"/>
<polygon fill="black" stroke="black" points="97.89,-37.99 87.44,-36.26 94.53,-44.13 97.89,-37.99"/>
</g>
<!-- Component A1.2 -->
<g id="node5" class="node">
<title>Component A1.2</title>
<path fill="#7fa8d4" stroke="black" d="M225.75,-36C225.75,-36 140,-36 140,-36 134,-36 128,-30 128,-24 128,-24 128,-12 128,-12 128,-6 134,0 140,0 140,0 225.75,0 225.75,0 231.75,0 237.75,-6 237.75,-12 237.75,-12 237.75,-24 237.75,-24 237.75,-30 231.75,-36 225.75,-36"/>
<text text-anchor="middle" x="182.88" y="-12.95" font-family="Times,serif" font-size="14.00" fill="white">Component A1.2</text>
</g>
<!-- Container A1&#45;&gt;Component A1.2 -->
<g id="edge4" class="edge">
<title>Container A1&#45;&gt;Component A1.2</title>
<path fill="none" stroke="black" d="M182.88,-71.7C182.88,-64.24 182.88,-55.32 182.88,-46.97"/>
<polygon fill="black" stroke="black" points="186.38,-47.1 182.88,-37.1 179.38,-47.1 186.38,-47.1"/>
</g>
<!-- Component A2.1 -->
<g id="node6" class="node">
<title>Component A2.1</title>
<path fill="#7fa8d4" stroke="black" d="M353.75,-36C353.75,-36 268,-36 268,-36 262,-36 256,-30 256,-24 256,-24 256,-12 256,-12 256,-6 262,0 268,0 268,0 353.75,0 353.75,0 359.75,0 365.75,-6 365.75,-12 365.75,-12 365.75,-24 365.75,-24 365.75,-30 359.75,-36 353.75,-36"/>
<text text-anchor="middle" x="310.88" y="-12.95" font-family="Times,serif" font-size="14.00" fill="white">Component A2.1</text>
</g>
<!-- Container A2&#45;&gt;Component A2.1 -->
<g id="edge5" class="edge">
<title>Container A2&#45;&gt;Component A2.1</title>
<path fill="none" stroke="black" d="M302.59,-71.7C303.77,-64.24 305.17,-55.32 306.48,-46.97"/>
<polygon fill="black" stroke="black" points="310.09,-47.53 308.19,-37.1 303.18,-46.44 310.09,-47.53"/>
</g>
</g>
</svg>
